<mxfile host="app.diagrams.net" agent="Mozilla/5.0 (Macintosh; Intel Mac OS X 10_15_7) AppleWebKit/537.36 (KHTML, like Gecko) Chrome/136.0.0.0 Safari/537.36" version="27.2.0">
  <diagram name="第 1 页" id="AdEsyRAMDa4sR9InBvqE">
    <mxGraphModel dx="2066" dy="1526" grid="0" gridSize="10" guides="1" tooltips="1" connect="1" arrows="1" fold="1" page="0" pageScale="1" pageWidth="827" pageHeight="1169" background="none" math="0" shadow="0">
      <root>
        <mxCell id="0" />
        <mxCell id="1" parent="0" />
        <mxCell id="jB-_-AgWGcoDBw4eVtvF-16" style="edgeStyle=orthogonalEdgeStyle;rounded=0;orthogonalLoop=1;jettySize=auto;html=1;fillColor=#f8cecc;strokeColor=#b85450;sketch=1;curveFitting=1;jiggle=2;" edge="1" parent="1" source="jB-_-AgWGcoDBw4eVtvF-14" target="jB-_-AgWGcoDBw4eVtvF-12">
          <mxGeometry relative="1" as="geometry" />
        </mxCell>
        <mxCell id="jB-_-AgWGcoDBw4eVtvF-14" value="" style="rounded=0;whiteSpace=wrap;html=1;fillColor=#f8cecc;strokeColor=#b85450;sketch=1;curveFitting=1;jiggle=2;" vertex="1" parent="1">
          <mxGeometry x="184.5" y="-13" width="261" height="420" as="geometry" />
        </mxCell>
        <mxCell id="jB-_-AgWGcoDBw4eVtvF-15" style="edgeStyle=orthogonalEdgeStyle;rounded=0;orthogonalLoop=1;jettySize=auto;html=1;endArrow=none;endFill=0;" edge="1" parent="1" source="jB-_-AgWGcoDBw4eVtvF-6" target="jB-_-AgWGcoDBw4eVtvF-7">
          <mxGeometry relative="1" as="geometry" />
        </mxCell>
        <mxCell id="jB-_-AgWGcoDBw4eVtvF-6" value="业务连续性保障" style="rounded=1;whiteSpace=wrap;html=1;fontSize=21;sketch=1;curveFitting=1;jiggle=2;shadow=0;" vertex="1" parent="1">
          <mxGeometry x="210" y="20" width="210" height="49" as="geometry" />
        </mxCell>
        <mxCell id="jB-_-AgWGcoDBw4eVtvF-17" style="edgeStyle=orthogonalEdgeStyle;rounded=0;orthogonalLoop=1;jettySize=auto;html=1;endArrow=none;endFill=0;" edge="1" parent="1" source="jB-_-AgWGcoDBw4eVtvF-7" target="jB-_-AgWGcoDBw4eVtvF-8">
          <mxGeometry relative="1" as="geometry" />
        </mxCell>
        <mxCell id="jB-_-AgWGcoDBw4eVtvF-7" value="敏捷响应能力" style="rounded=1;whiteSpace=wrap;html=1;fontSize=21;sketch=1;curveFitting=1;jiggle=2;shadow=0;glass=0;" vertex="1" parent="1">
          <mxGeometry x="210" y="114" width="210" height="50" as="geometry" />
        </mxCell>
        <mxCell id="jB-_-AgWGcoDBw4eVtvF-19" style="edgeStyle=orthogonalEdgeStyle;rounded=0;orthogonalLoop=1;jettySize=auto;html=1;endArrow=none;endFill=0;" edge="1" parent="1" source="jB-_-AgWGcoDBw4eVtvF-8" target="jB-_-AgWGcoDBw4eVtvF-18">
          <mxGeometry relative="1" as="geometry" />
        </mxCell>
        <mxCell id="jB-_-AgWGcoDBw4eVtvF-8" value="风险控制" style="rounded=1;whiteSpace=wrap;html=1;fontSize=21;sketch=1;curveFitting=1;jiggle=2;shadow=0;" vertex="1" parent="1">
          <mxGeometry x="210" y="210" width="210" height="50" as="geometry" />
        </mxCell>
        <mxCell id="jB-_-AgWGcoDBw4eVtvF-12" value="满意度提升" style="rounded=1;whiteSpace=wrap;html=1;fontSize=21;fillColor=#dae8fc;strokeColor=#6c8ebf;sketch=1;curveFitting=1;jiggle=2;shadow=0;" vertex="1" parent="1">
          <mxGeometry x="210" y="472" width="210" height="50" as="geometry" />
        </mxCell>
        <mxCell id="jB-_-AgWGcoDBw4eVtvF-18" value="用户体验提升" style="rounded=1;whiteSpace=wrap;html=1;fontSize=21;sketch=1;curveFitting=1;jiggle=2;shadow=0;" vertex="1" parent="1">
          <mxGeometry x="210" y="314" width="210" height="50" as="geometry" />
        </mxCell>
      </root>
    </mxGraphModel>
  </diagram>
</mxfile>
